<svg xmlns="http://www.w3.org/2000/svg" fill="none" viewBox="0 0 1033 207"><path fill="#000" d="M46.983 49.083l31.421 110.054h1.197l31.422-110.054h46.982L107.432 205.17H50.574L0 49.083h46.983zM172.762 205.17V49.083h110.424v34.144h-68.828v26.827H277.5v34.145h-63.142v26.828h68.529v34.144H172.762zm32.02-169.807c-5.087 0-9.401-1.728-12.943-5.183-3.541-3.455-5.311-7.621-5.311-12.5 0-4.877 1.77-9.043 5.311-12.498C195.381 1.728 199.695 0 204.782 0c4.938 0 9.152 1.728 12.643 5.183 3.542 3.455 5.312 7.621 5.312 12.499s-1.77 9.044-5.312 12.5c-3.491 3.454-7.705 5.182-12.643 5.182zm47.581 0c-5.087 0-9.401-1.728-12.943-5.183-3.541-3.455-5.311-7.621-5.311-12.5 0-4.877 1.77-9.043 5.311-12.498C242.962 1.728 247.276 0 252.363 0c4.938 0 9.152 1.728 12.644 5.183 3.541 3.455 5.311 7.621 5.311 12.499s-1.77 9.044-5.311 12.5c-3.492 3.454-7.706 5.182-12.644 5.182zm51.453 169.807V49.083h66.135c11.371 0 21.321 2.108 29.85 6.325 8.529 4.218 15.162 10.29 19.9 18.216 4.738 7.926 7.107 17.428 7.107 28.504 0 11.178-2.443 20.604-7.331 28.276-4.838 7.672-11.646 13.465-20.424 17.377-8.728 3.912-18.928 5.868-30.599 5.868h-39.501v-32.924h31.122c4.888 0 9.053-.61 12.494-1.83 3.491-1.27 6.16-3.277 8.005-6.021 1.895-2.743 2.843-6.325 2.843-10.746 0-4.471-.948-8.104-2.843-10.899-1.845-2.845-4.514-4.928-8.005-6.25-3.441-1.371-7.606-2.057-12.494-2.057h-14.663V205.17h-41.596zm89.775-71.642l38.305 71.642h-45.187l-37.407-71.642h44.289zM527.133 97.86c-.399-5.08-2.27-9.044-5.611-11.89-3.292-2.845-8.304-4.267-15.038-4.267-4.289 0-7.805.533-10.548 1.6-2.694 1.016-4.689 2.413-5.985 4.192-1.297 1.778-1.97 3.81-2.02 6.097-.1 1.88.224 3.582.972 5.106.798 1.474 2.045 2.82 3.741 4.04 1.696 1.168 3.865 2.235 6.509 3.201 2.643.965 5.785 1.829 9.426 2.591l12.569 2.744c8.479 1.829 15.735 4.243 21.77 7.24 6.035 2.998 10.973 6.529 14.813 10.594 3.841 4.014 6.659 8.536 8.454 13.567 1.846 5.03 2.793 10.517 2.843 16.462-.05 10.264-2.568 18.952-7.556 26.065-4.988 7.114-12.12 12.525-21.397 16.234-9.226 3.709-20.324 5.564-33.291 5.564-13.317 0-24.938-2.007-34.863-6.021-9.876-4.014-17.556-10.187-23.043-18.52-5.436-8.384-8.179-19.105-8.229-32.163h39.501c.25 4.776 1.422 8.79 3.516 12.042 2.095 3.252 5.038 5.716 8.828 7.393 3.841 1.677 8.404 2.515 13.691 2.515 4.439 0 8.155-.559 11.147-1.677 2.993-1.118 5.262-2.667 6.808-4.649 1.546-1.981 2.344-4.243 2.394-6.783-.05-2.388-.823-4.471-2.319-6.25-1.446-1.829-3.84-3.455-7.182-4.877-3.342-1.474-7.855-2.846-13.541-4.116l-15.262-3.354c-13.566-2.997-24.264-8.002-32.095-15.014-7.78-7.062-11.646-16.691-11.596-28.885-.05-9.908 2.544-18.571 7.781-25.99 5.287-7.469 12.593-13.287 21.92-17.453 9.377-4.166 20.125-6.25 32.244-6.25 12.369 0 23.068 2.11 32.095 6.326 9.028 4.217 15.985 10.162 20.873 17.835 4.938 7.621 7.431 16.538 7.481 26.751h-39.8zm53.528-14.633V49.082h133.168v34.145h-46.085V205.17h-40.998V83.227h-46.085zM729.483 205.17V49.083h41.596v63.105h2.095l46.085-63.105h48.479l-51.771 69.508 52.968 86.58h-49.676l-34.414-58.533-13.766 18.291v40.242h-41.596zm190.4 0h-44.888l50.573-156.089h56.858L1033 205.171h-44.888L954.596 92.068h-1.197L919.883 205.17zm-8.379-61.582h84.389v31.706h-84.389v-31.706z"/></svg>